<?xml version="1.0" encoding="utf-8"?>
<svg xml:space="preserve" viewBox="0 0 100 100" y="0" x="0" xmlns="http://www.w3.org/2000/svg" id="Layer_1" version="1.1" style="height: 100%; width: 100%; background: none; shape-rendering: auto;" width="57px" height="57px"><g class="ldl-scale" style="transform-origin: 50% 50%; transform: scale(0.7);"><g class="ldl-ani"><g class="ldl-layer"><g class="ldl-ani"><g id="XMLID_10_"><g class="ldl-layer"><g class="ldl-ani" style="transform-origin: 50px 50px; transform: matrix(1, 0, 0, 1, 0, 0); animation: 1.11111s linear -1.02778s infinite normal forwards running bounce-1945a17e-98c6-4cba-afb3-2f584f8b25f6;"><path d="M90.628 5H79.834L9.372 95h10.957z" fill="#c42026" style="fill: rgb(196, 32, 38);"></path></g></g></g></g></g><g class="ldl-layer"><g class="ldl-ani"><g id="XMLID_7_"><g class="ldl-layer"><g class="ldl-ani" style="transform-origin: 50px 50px; transform: matrix(1, 0, 0, 1, 0, 0); animation: 1.11111s linear -1.11111s infinite normal forwards running bounce-1945a17e-98c6-4cba-afb3-2f584f8b25f6;"><path fill="#010101" d="M75.377 36.615c-3.545-3.582-10.366-6.838-25.35-6.838-14.447 0-21.805 3.202-25.403 6.838-3.276 3.31-5.049 7.435-5.049 13.567s1.772 10.202 5.048 13.513c3.545 3.582 10.688 6.892 25.403 6.892s21.805-3.256 25.35-6.838c3.276-3.31 5.049-7.435 5.049-13.567 0-6.187-1.772-10.257-5.048-13.567zm-25.35 25.227c-9.6 0-14.56-1.986-16.694-4.133-1.654-1.664-2.827-3.811-2.827-7.891s1.013-6.281 2.773-8.052c2.187-2.201 7.147-3.972 16.747-3.972s14.4 1.825 16.64 4.08c1.76 1.772 2.827 3.865 2.827 7.945 0 4.079-1.013 6.281-2.773 8.052-2.239 2.253-7.093 3.971-16.693 3.971z" style="fill: rgb(1, 1, 1);"></path></g></g></g></g></g><metadata xmlns:d="https://loading.io/stock/">
<d:name>g0v</d:name>
<d:tags>g0v,civic tech,open government,open data,open source,hackathon,code for all</d:tags>
<d:license>by</d:license>
<d:slug>ep7yl8</d:slug>
</metadata></g></g><style id="bounce-1945a17e-98c6-4cba-afb3-2f584f8b25f6" data-anikit="">@keyframes bounce-1945a17e-98c6-4cba-afb3-2f584f8b25f6
{
  0% {
    animation-timing-function: cubic-bezier(0.1361,0.2514,0.2175,0.8786);
    transform: translate(0,0px) scaleY(1);
  }
  37% {
    animation-timing-function: cubic-bezier(0.7674,0.1844,0.8382,0.7157);
    transform: translate(0,-21.978px) scaleY(1);
  }
  72% {
    animation-timing-function: cubic-bezier(0.1304,0.2505,0.2631,0.9438);
    transform: translate(0,0px) scaleY(1);
  }
  87% {
    animation-timing-function: cubic-bezier(0.7009,0.2137,0.8137,0.6848);
    transform: translate(0,16.727999999999998px) scaleY(0.672);
  }
  100% {
    transform: translate(0,0px) scaleY(1);
  }
}</style><!-- [ldio] generated by https://loading.io/ --></svg>